# xmcd CD database file
#
# Track frame offsets:
#	150
#	19740
#	38382
#	60387
#	79150
#	95865
#	118195
#	136940
#	157335
#	176959
#	196982
#	215090
#	232490
#	248965
#
# Disc length: 3561 seconds
#
# Revision: 2
# Processed by: cddbd v1.4PL0 Copyright (c) Steve Scherf et al.
# Submitted via: CDex 1.51
#
DISCID=d10de70e
DTITLE=김종환 - 사랑을 위하여
DYEAR=1997
DGENRE=Ballad
TTITLE0=사랑을 위하여
TTITLE1=사랑하는 이에게
TTITLE2=공존의 의미
TTITLE3=슬퍼하지마
TTITLE4=존재의 이유
TTITLE5=편지를 써요
TTITLE6=한 사람을 위해
TTITLE7=사랑을 위하여( 듀엣 조영남)
TTITLE8=너의 빈자리
TTITLE9=21세기에 19세기 사랑
TTITLE10=바닷가에서
TTITLE11=그리운 얼굴
TTITLE12=돌아와
TTITLE13=사랑하는 법과 용서하는 법
EXTD=YEAR: 1997
EXTT0=
EXTT1=
EXTT2=
EXTT3=
EXTT4=
EXTT5=
EXTT6=
EXTT7=
EXTT8=
EXTT9=
EXTT10=
EXTT11=
EXTT12=
EXTT13=
PLAYORDER=
